<svg width="64" height="64" viewBox="0 0 64 64" xmlns="http://www.w3.org/2000/svg">
  <defs>
    <radialGradient id="ocean" cx="38%" cy="32%" r="78%">
      <stop offset="0%" stop-color="#7fc8f0"/>
      <stop offset="35%" stop-color="#1f7fcf"/>
      <stop offset="72%" stop-color="#0f4f9e"/>
      <stop offset="100%" stop-color="#062a5e"/>
    </radialGradient>
    <linearGradient id="land" x1="0" y1="0" x2="0" y2="1">
      <stop offset="0%" stop-color="#5bbf6a"/>
      <stop offset="55%" stop-color="#3a9450"/>
      <stop offset="100%" stop-color="#2c6b3c"/>
    </linearGradient>
    <radialGradient id="shade" cx="36%" cy="30%" r="85%">
      <stop offset="0%" stop-color="#000000" stop-opacity="0"/>
      <stop offset="62%" stop-color="#000000" stop-opacity="0"/>
      <stop offset="100%" stop-color="#000510" stop-opacity="0.7"/>
    </radialGradient>
    <radialGradient id="spec" cx="34%" cy="28%" r="30%">
      <stop offset="0%" stop-color="#ffffff" stop-opacity="0.55"/>
      <stop offset="100%" stop-color="#ffffff" stop-opacity="0"/>
    </radialGradient>
    <clipPath id="clip"><circle cx="32" cy="32" r="29"/></clipPath>
  </defs>
  <circle cx="32" cy="32" r="29" fill="url(#ocean)"/>
  <g clip-path="url(#clip)" fill="url(#land)">
    <path d="M11 20 C15 17 23 18 26 22 C29 26 27 31 24 33 C26 35 27 39 24 42 C20 46 14 45 12 41 C9 37 11 33 9 30 C7 26 7 22 11 20 Z"/>
    <path d="M24 44 C28 42 33 45 33 50 C33 55 29 60 26 62 C24 64 21 62 21 59 C21 55 23 52 22 49 C21 46 21 45 24 44 Z"/>
    <path d="M35 22 C41 20 47 23 47 28 C47 33 43 36 44 40 C45 45 41 51 36 51 C33 51 31 47 32 43 C33 39 35 37 34 33 C33 29 31 24 35 22 Z"/>
    <path d="M49 39 C54 37 58 39 58 43 C58 47 54 49 50 48 C47 47 46 44 47 42 C48 40 47 40 49 39 Z"/>
  </g>
  <circle cx="32" cy="32" r="29" fill="url(#shade)"/>
  <circle cx="32" cy="32" r="29" fill="url(#spec)"/>
</svg>
